<svg id="Layer_1" data-name="Layer 1" xmlns="http://www.w3.org/2000/svg" xmlns:xlink="http://www.w3.org/1999/xlink" viewBox="0 0 900 600"><defs><style>.cls-1,.cls-10,.cls-12{fill:none;}.cls-2{fill:#3f5baa;}.cls-13,.cls-3,.cls-9{fill:#fff;}.cls-4{fill:#ff8894;}.cls-10,.cls-11,.cls-12,.cls-13,.cls-4,.cls-5,.cls-7,.cls-9{stroke:#000f41;stroke-width:2px;}.cls-10,.cls-11,.cls-4,.cls-5,.cls-7,.cls-9{stroke-miterlimit:10;}.cls-5,.cls-6{fill:url(#New_Pattern);}.cls-7{fill:#ff526c;}.cls-8{fill:#000f41;}.cls-11{fill:#00587b;}.cls-12,.cls-13{stroke-linecap:round;stroke-linejoin:round;}</style><pattern id="New_Pattern" data-name="New Pattern" width="76.34" height="84.29" patternUnits="userSpaceOnUse" viewBox="0 0 76.34 84.29"><rect class="cls-1" width="76.34" height="84.29"/><circle class="cls-2" cx="66.67" cy="5.8" r="3.32"/><circle class="cls-2" cx="66.67" cy="57.23" r="3.32"/><circle class="cls-2" cx="66.67" cy="74.14" r="3.32"/><circle class="cls-2" cx="77.55" cy="38.83" r="3.32"/><circle class="cls-2" cx="69.99" cy="20.78" r="3.32"/><circle class="cls-2" cx="57.25" cy="38.83" r="3.32"/><circle class="cls-2" cx="44.51" cy="5.8" r="3.32"/><circle class="cls-2" cx="28.51" cy="5.8" r="3.32"/><circle class="cls-2" cx="51.09" cy="21.42" r="3.32"/><circle class="cls-2" cx="28.51" cy="57.23" r="3.32"/><circle class="cls-2" cx="47.77" cy="59.47" r="3.32"/><circle class="cls-2" cx="28.51" cy="74.14" r="3.32"/><circle class="cls-2" cx="39.38" cy="38.83" r="3.32"/><circle class="cls-2" cx="51.09" cy="75.51" r="3.32"/><circle class="cls-2" cx="31.83" cy="20.78" r="3.32"/><circle class="cls-2" cx="19.08" cy="38.83" r="3.32"/><circle class="cls-2" cx="6.34" cy="5.8" r="3.32"/><circle class="cls-2" cx="12.92" cy="21.42" r="3.32"/><circle class="cls-2" cx="9.6" cy="59.47" r="3.32"/><circle class="cls-2" cx="1.21" cy="38.83" r="3.32"/><circle class="cls-2" cx="12.92" cy="75.51" r="3.32"/></pattern></defs><title>background1</title><rect class="cls-3" width="900" height="600"/><path class="cls-4" d="M169.37-14.34H-13.88V119.15a115.17,115.17,0,0,0,78.13,30.4A115.71,115.71,0,0,0,169.37-14.34Z"/><path class="cls-5" d="M289.16-46.06S431.26-21,443.77,82.13,503.15,224.4,599.2,218.61s113.32,68.75,116.94,121.1-25.48,240.06,320.73,69.61S1259-27.68,1259-27.68L873-118.06s-309.45,13.78-315.58,15.32S289.16-46.06,289.16-46.06Z"/><polyline class="cls-6" points="529.3 600 0 600 0 258.7"/><polyline class="cls-5" points="0 258.7 221.9 258.7 221.9 335.29 291.34 335.29 291.34 403.72 371 403.72 371 473.7 374.07 499.81 445.56 535.46 529.3 535.46 529.3 600"/><line class="cls-7" x1="180.03" y1="36.15" x2="406.6" y2="50.24"/><line class="cls-7" x1="173.11" y1="72.99" x2="411.72" y2="125.9"/><line class="cls-7" x1="158.63" y1="100.75" x2="456.1" y2="218.61"/><circle class="cls-8" cx="188.45" cy="300" r="3.32"/><path class="cls-4" d="M83,291.12a53.11,53.11,0,0,0-53.11,53.11c0,1,0,2.08.09,3.11V479.51H60.8V344.23a21.87,21.87,0,0,1,43.74,0V479.51h31.57V344.23A53.11,53.11,0,0,0,83,291.12Z"/><rect class="cls-9" x="177.98" y="245.51" width="93.96" height="77.62"/><path class="cls-9" d="M451.38,21.51H296.76c-22.32,0-40.42,22.45-40.42,50.14s18.1,50.15,40.42,50.15H451.38c22.32,0,40.41-22.45,40.41-50.15S473.7,21.51,451.38,21.51Z"/><rect class="cls-9" x="224.96" y="323.13" width="93.96" height="77.62"/><rect class="cls-9" x="280.11" y="402.35" width="93.96" height="77.62"/><rect class="cls-9" x="338.32" y="478.36" width="93.96" height="77.62"/><path class="cls-7" d="M390.75,610.21V567.52q-.09-1.54-.09-3.12a53.11,53.11,0,0,1,106.22,0v45.81H465.31V564.4a21.87,21.87,0,0,0-43.74,0v45.81"/><path class="cls-9" d="M385,435.94H17V544H385c35.9,0,65-24.18,65-54S420.9,435.94,385,435.94Z"/><line class="cls-10" x1="70.74" y1="489.95" x2="385.3" y2="489.95"/><path class="cls-8" d="M394.94,280.78a13.88,13.88,0,0,0,1.13,19.59l-19-16.9a13.88,13.88,0,1,0-18.46,20.72l35.92,32A13.88,13.88,0,1,0,413,315.47l19,16.91a13.88,13.88,0,0,0,18.46-20.73l-35.93-32A13.88,13.88,0,0,0,394.94,280.78Z"/><path class="cls-11" d="M598.08,73.5a15.25,15.25,0,0,0-15.89,14.61l1.18-27.93a15.27,15.27,0,1,0-30.51-1.29l-2.22,52.88a15.26,15.26,0,1,0,30.5,1.29L580,141a15.27,15.27,0,0,0,30.51,1.28l2.22-52.88A15.25,15.25,0,0,0,598.08,73.5Z"/><path class="cls-11" d="M150.79,116.59h-104a27.19,27.19,0,0,0,0,54.37h104a27.19,27.19,0,1,0,0-54.37Z"/><path class="cls-7" d="M595.63,254.63H554.47a10.76,10.76,0,0,0,0,21.51h41.16a10.76,10.76,0,0,0,0-21.51Z"/><path class="cls-9" d="M669.11,600V420.9a47,47,0,0,1,45.55-47c.49,0,1,0,1.48,0a47,47,0,0,1,47,47V600"/><path class="cls-8" d="M856.75,600a54.31,54.31,0,0,0,.49-7.37v-196c0-28.28-21-51.21-47-51.21s-47,22.93-47,51.21v196a54.31,54.31,0,0,0,.49,7.37Z"/><path class="cls-9" d="M575.05,599.63v-134c0-35.25,21.06-56.31,47-56.31a47,47,0,0,1,47,47v134"/><circle class="cls-5" cx="299.88" cy="208.74" r="21.51"/><circle class="cls-9" cx="395.58" cy="125.9" r="21.51"/><circle class="cls-9" cx="636.28" cy="329.43" r="10.28"/><circle class="cls-11" cx="496.88" cy="414.43" r="21.51"/><circle class="cls-10" cx="126.94" cy="218.61" r="15.21"/><line class="cls-12" x1="310.6" y1="45.48" x2="289.16" y2="82.13"/><line class="cls-12" x1="317.11" y1="76.21" x2="282.65" y2="51.4"/><path class="cls-7" d="M900,100.29H787.43a12,12,0,0,1-12-12V62.24a12,12,0,0,1,12-12H900"/><line class="cls-13" x1="731.75" y1="414.43" x2="731.75" y2="479.96"/><line class="cls-13" x1="707.51" y1="479.96" x2="707.51" y2="545.49"/><line class="cls-13" x1="636.28" y1="447.2" x2="636.28" y2="512.73"/><line class="cls-13" x1="599.2" y1="471.71" x2="599.2" y2="537.24"/><line class="cls-13" x1="622.08" y1="517.78" x2="622.08" y2="583.31"/></svg>